<svg width="1200" height="630" viewBox="0 0 1200 630" fill="none" xmlns="http://www.w3.org/2000/svg">
<rect width="1200" height="630" fill="#0F0E17"/>
<g clip-path="url(#clip0)">
<path d="M577.602 192.229L574.803 208.549C574.336 211.275 575.456 214.03 577.694 215.655C578.959 216.575 580.459 217.043 581.965 217.043C583.122 217.043 584.283 216.767 585.345 216.208L600 208.503L614.657 216.208C615.719 216.767 616.88 217.043 618.037 217.043H618.057C622.065 217.038 625.314 213.787 625.314 209.777C625.314 209.22 625.25 208.676 625.131 208.154L622.399 192.229L634.255 180.672C636.235 178.742 636.948 175.855 636.093 173.225C635.239 170.594 632.965 168.677 630.228 168.28L613.845 165.898L606.515 151.049C605.291 148.57 602.765 147 599.999 147C597.234 147 594.708 148.57 593.485 151.05L586.158 165.898L569.771 168.279C567.035 168.676 564.761 170.593 563.907 173.224C563.052 175.854 563.765 178.742 565.745 180.672L577.602 192.229Z" fill="#FF8906"/>
<path d="M710.388 326.216C700.514 334.497 687.795 339.491 673.931 339.491C669.31 339.491 664.816 338.933 660.512 337.886C663.151 344.926 664.599 352.545 664.599 360.496V368.278C664.599 378.465 660.88 387.795 654.738 394.999H697.278C712.013 394.999 724 383.013 724 368.278V360.496C724 347.245 718.823 335.181 710.388 326.216Z" fill="#FFFFFE"/>
<path d="M600 324.959C623.316 324.959 642.285 305.99 642.285 282.673C642.285 259.356 623.316 240.387 600 240.387C576.683 240.387 557.714 259.356 557.714 282.673C557.714 305.99 576.684 324.959 600 324.959Z" fill="#E53170"/>
<path d="M673.931 324.959C697.249 324.959 716.218 305.99 716.218 282.673C716.218 259.356 697.249 240.387 673.931 240.387C663.567 240.387 654.062 244.138 646.699 250.351C653.074 259.533 656.816 270.673 656.816 282.673C656.816 294.672 653.074 305.813 646.699 314.995C654.062 321.208 663.566 324.959 673.931 324.959Z" fill="#FFFFFE"/>
<path d="M526.068 324.96C536.433 324.96 545.937 321.209 553.3 314.996C546.925 305.814 543.183 294.674 543.183 282.674C543.183 270.674 546.925 259.534 553.3 250.352C545.938 244.139 536.434 240.388 526.068 240.388C502.751 240.388 483.782 259.357 483.782 282.674C483.782 305.991 502.752 324.96 526.068 324.96V324.96Z" fill="#FFFFFE"/>
<path d="M600 339.491C586.136 339.491 573.417 334.496 563.544 326.216C555.109 335.181 549.932 347.245 549.932 360.496V368.278C549.932 383.013 561.919 394.999 576.653 394.999H623.346C638.081 394.999 650.067 383.013 650.067 368.278V360.496C650.067 347.245 644.89 335.181 636.456 326.216C626.582 334.497 613.864 339.491 600 339.491V339.491Z" fill="#E53170"/>
<path d="M535.4 360.497C535.4 352.545 536.848 344.926 539.488 337.886C535.183 338.932 530.69 339.491 526.067 339.491C512.203 339.491 499.485 334.496 489.611 326.216C481.177 335.181 476 347.244 476 360.497V368.278C476 383.013 487.987 395 502.721 395H545.262C539.12 387.795 535.4 378.465 535.4 368.278V360.497Z" fill="#FFFFFE"/>
</g>
<path d="M109.438 459.812H112.625C115.604 459.812 117.833 459.229 119.312 458.062C120.792 456.875 121.531 455.156 121.531 452.906C121.531 450.635 120.906 448.958 119.656 447.875C118.427 446.792 116.49 446.25 113.844 446.25H109.438V459.812ZM131.312 452.562C131.312 457.479 129.771 461.24 126.688 463.844C123.625 466.448 119.26 467.75 113.594 467.75H109.438V484H99.75V438.312H114.344C119.885 438.312 124.094 439.51 126.969 441.906C129.865 444.281 131.312 447.833 131.312 452.562ZM157.625 458.594H160.75C163.812 458.594 166.073 458.083 167.531 457.062C168.99 456.042 169.719 454.438 169.719 452.25C169.719 450.083 168.969 448.542 167.469 447.625C165.99 446.708 163.688 446.25 160.562 446.25H157.625V458.594ZM157.625 466.469V484H147.938V438.312H161.25C167.458 438.312 172.052 439.448 175.031 441.719C178.01 443.969 179.5 447.396 179.5 452C179.5 454.688 178.76 457.083 177.281 459.188C175.802 461.271 173.708 462.906 171 464.094C177.875 474.365 182.354 481 184.438 484H173.688L162.781 466.469H157.625ZM224.5 484H198.188V438.312H224.5V446.25H207.875V456.281H223.344V464.219H207.875V476H224.5V484ZM269.031 471.312C269.031 475.438 267.542 478.688 264.562 481.062C261.604 483.438 257.479 484.625 252.188 484.625C247.312 484.625 243 483.708 239.25 481.875V472.875C242.333 474.25 244.938 475.219 247.062 475.781C249.208 476.344 251.167 476.625 252.938 476.625C255.062 476.625 256.688 476.219 257.812 475.406C258.958 474.594 259.531 473.385 259.531 471.781C259.531 470.885 259.281 470.094 258.781 469.406C258.281 468.698 257.542 468.021 256.562 467.375C255.604 466.729 253.635 465.698 250.656 464.281C247.865 462.969 245.771 461.708 244.375 460.5C242.979 459.292 241.865 457.885 241.031 456.281C240.198 454.677 239.781 452.802 239.781 450.656C239.781 446.615 241.146 443.438 243.875 441.125C246.625 438.812 250.417 437.656 255.25 437.656C257.625 437.656 259.885 437.938 262.031 438.5C264.198 439.062 266.458 439.854 268.812 440.875L265.688 448.406C263.25 447.406 261.229 446.708 259.625 446.312C258.042 445.917 256.479 445.719 254.938 445.719C253.104 445.719 251.698 446.146 250.719 447C249.74 447.854 249.25 448.969 249.25 450.344C249.25 451.198 249.448 451.948 249.844 452.594C250.24 453.219 250.865 453.833 251.719 454.438C252.594 455.021 254.646 456.083 257.875 457.625C262.146 459.667 265.073 461.719 266.656 463.781C268.24 465.823 269.031 468.333 269.031 471.312ZM285.312 484V438.312H295V484H285.312ZM352.406 460.719C352.406 468.24 350.26 474 345.969 478C341.698 482 335.521 484 327.438 484H314.5V438.312H328.844C336.302 438.312 342.094 440.281 346.219 444.219C350.344 448.156 352.406 453.656 352.406 460.719ZM342.344 460.969C342.344 451.156 338.01 446.25 329.344 446.25H324.188V476H328.344C337.677 476 342.344 470.99 342.344 460.969ZM396.188 484H369.875V438.312H396.188V446.25H379.562V456.281H395.031V464.219H379.562V476H396.188V484ZM454.281 484H441.969L422.094 449.438H421.812C422.208 455.542 422.406 459.896 422.406 462.5V484H413.75V438.312H425.969L445.812 472.531H446.031C445.719 466.594 445.562 462.396 445.562 459.938V438.312H454.281V484ZM491.438 484H481.75V446.375H469.344V438.312H503.844V446.375H491.438V484ZM584.969 461.094C584.969 468.656 583.094 474.469 579.344 478.531C575.594 482.594 570.219 484.625 563.219 484.625C556.219 484.625 550.844 482.594 547.094 478.531C543.344 474.469 541.469 468.635 541.469 461.031C541.469 453.427 543.344 447.625 547.094 443.625C550.865 439.604 556.26 437.594 563.281 437.594C570.302 437.594 575.667 439.615 579.375 443.656C583.104 447.698 584.969 453.51 584.969 461.094ZM551.625 461.094C551.625 466.198 552.594 470.042 554.531 472.625C556.469 475.208 559.365 476.5 563.219 476.5C570.948 476.5 574.812 471.365 574.812 461.094C574.812 450.802 570.969 445.656 563.281 445.656C559.427 445.656 556.521 446.958 554.562 449.562C552.604 452.146 551.625 455.99 551.625 461.094ZM611.969 484H602.438V438.312H628.625V446.25H611.969V458.031H627.469V465.938H611.969V484ZM687.812 484H678.125V446.375H665.719V438.312H700.219V446.375H687.812V484ZM752.688 484H743.031V464.281H724.938V484H715.25V438.312H724.938V456.219H743.031V438.312H752.688V484ZM798.562 484H772.25V438.312H798.562V446.25H781.938V456.281H797.406V464.219H781.938V476H798.562V484ZM885.25 484H874.219L868.031 460C867.802 459.146 867.406 457.385 866.844 454.719C866.302 452.031 865.99 450.229 865.906 449.312C865.781 450.438 865.469 452.25 864.969 454.75C864.469 457.229 864.083 459 863.812 460.062L857.656 484H846.656L835 438.312H844.531L850.375 463.25C851.396 467.854 852.135 471.844 852.594 475.219C852.719 474.031 853 472.198 853.438 469.719C853.896 467.219 854.323 465.281 854.719 463.906L861.375 438.312H870.531L877.188 463.906C877.479 465.052 877.844 466.802 878.281 469.156C878.719 471.51 879.052 473.531 879.281 475.219C879.49 473.594 879.823 471.573 880.281 469.156C880.74 466.719 881.156 464.75 881.531 463.25L887.344 438.312H896.875L885.25 484ZM952.094 461.094C952.094 468.656 950.219 474.469 946.469 478.531C942.719 482.594 937.344 484.625 930.344 484.625C923.344 484.625 917.969 482.594 914.219 478.531C910.469 474.469 908.594 468.635 908.594 461.031C908.594 453.427 910.469 447.625 914.219 443.625C917.99 439.604 923.385 437.594 930.406 437.594C937.427 437.594 942.792 439.615 946.5 443.656C950.229 447.698 952.094 453.51 952.094 461.094ZM918.75 461.094C918.75 466.198 919.719 470.042 921.656 472.625C923.594 475.208 926.49 476.5 930.344 476.5C938.073 476.5 941.938 471.365 941.938 461.094C941.938 450.802 938.094 445.656 930.406 445.656C926.552 445.656 923.646 446.958 921.688 449.562C919.729 452.146 918.75 455.99 918.75 461.094ZM979.25 458.594H982.375C985.438 458.594 987.698 458.083 989.156 457.062C990.615 456.042 991.344 454.438 991.344 452.25C991.344 450.083 990.594 448.542 989.094 447.625C987.615 446.708 985.312 446.25 982.188 446.25H979.25V458.594ZM979.25 466.469V484H969.562V438.312H982.875C989.083 438.312 993.677 439.448 996.656 441.719C999.635 443.969 1001.12 447.396 1001.12 452C1001.12 454.688 1000.39 457.083 998.906 459.188C997.427 461.271 995.333 462.906 992.625 464.094C999.5 474.365 1003.98 481 1006.06 484H995.312L984.406 466.469H979.25ZM1019.81 484V438.312H1029.5V476H1048.03V484H1019.81ZM1101.91 460.719C1101.91 468.24 1099.76 474 1095.47 478C1091.2 482 1085.02 484 1076.94 484H1064V438.312H1078.34C1085.8 438.312 1091.59 440.281 1095.72 444.219C1099.84 448.156 1101.91 453.656 1101.91 460.719ZM1091.84 460.969C1091.84 451.156 1087.51 446.25 1078.84 446.25H1073.69V476H1077.84C1087.18 476 1091.84 470.99 1091.84 460.969Z" fill="#FFFFFE"/>
<defs>
<clipPath id="clip0">
<rect width="248" height="248" fill="white" transform="translate(476 147)"/>
</clipPath>
</defs>
</svg>
