<svg width="294" height="294" viewBox="0 0 294 294" fill="none" xmlns="http://www.w3.org/2000/svg">
<rect width="294" height="294" rx="4" fill="#0F0E17"/>
<g clip-path="url(#clip0)">
<rect width="248" height="248" transform="translate(23 23)" fill="#0F0E17"/>
<path d="M124.602 68.2295L121.803 84.549C121.336 87.2751 122.456 90.0298 124.694 91.6553C125.959 92.5747 127.459 93.0426 128.965 93.0426C130.122 93.0426 131.283 92.767 132.345 92.2075L147 84.503L161.657 92.2085C162.719 92.767 163.88 93.043 165.037 93.043H165.057C169.065 93.0377 172.314 89.7866 172.314 85.7774C172.314 85.2199 172.25 84.676 172.131 84.1538L169.399 68.229L181.255 56.6723C183.235 54.7421 183.948 51.8547 183.093 49.2245C182.239 46.5939 179.965 44.6767 177.228 44.2796L160.845 41.8984L153.515 27.0494C152.291 24.5699 149.765 23 146.999 23C144.234 23 141.708 24.5703 140.485 27.0503L133.158 41.8979L116.771 44.2791C114.035 44.6763 111.761 46.5934 110.907 49.2241C110.052 51.8542 110.765 54.7416 112.745 56.6718L124.602 68.2295Z" fill="#FF8906"/>
<path d="M257.388 202.216C247.514 210.497 234.795 215.491 220.931 215.491C216.31 215.491 211.816 214.933 207.512 213.886C210.151 220.926 211.599 228.545 211.599 236.496V244.278C211.599 254.465 207.88 263.795 201.738 270.999H244.278C259.013 270.999 271 259.013 271 244.278V236.496C271 223.245 265.823 211.181 257.388 202.216Z" fill="#FFFFFE"/>
<path d="M147 200.959C170.316 200.959 189.285 181.99 189.285 158.673C189.285 135.356 170.316 116.387 147 116.387C123.683 116.387 104.714 135.356 104.714 158.673C104.714 181.99 123.684 200.959 147 200.959Z" fill="#E53170"/>
<path d="M220.931 200.959C244.249 200.959 263.218 181.99 263.218 158.673C263.218 135.356 244.249 116.387 220.931 116.387C210.567 116.387 201.062 120.138 193.699 126.351C200.074 135.533 203.816 146.673 203.816 158.673C203.816 170.672 200.074 181.813 193.699 190.995C201.062 197.208 210.566 200.959 220.931 200.959Z" fill="#FFFFFE"/>
<path d="M73.0677 200.96C83.4333 200.96 92.9372 197.209 100.3 190.996C93.9254 181.814 90.1826 170.674 90.1826 158.674C90.1826 146.674 93.9254 135.534 100.3 126.352C92.9377 120.139 83.4338 116.388 73.0677 116.388C49.7513 116.388 30.7822 135.357 30.7822 158.674C30.7822 181.991 49.7518 200.96 73.0677 200.96V200.96Z" fill="#FFFFFE"/>
<path d="M147 215.491C133.136 215.491 120.417 210.496 110.544 202.216C102.109 211.181 96.9316 223.245 96.9316 236.496V244.278C96.9316 259.013 108.919 270.999 123.653 270.999H170.346C185.081 270.999 197.067 259.013 197.067 244.278V236.496C197.067 223.245 191.89 211.181 183.456 202.216C173.582 210.497 160.864 215.491 147 215.491Z" fill="#E53170"/>
<path d="M82.4004 236.497C82.4004 228.545 83.8482 220.926 86.4875 213.886C82.1829 214.932 77.6898 215.491 73.0674 215.491C59.2032 215.491 46.4854 210.496 36.6114 202.216C28.177 211.181 23 223.244 23 236.497V244.278C23 259.013 34.9868 271 49.721 271H92.2617C86.1199 263.795 82.4004 254.465 82.4004 244.278V236.497Z" fill="#FFFFFE"/>
</g>
<defs>
<clipPath id="clip0">
<rect width="248" height="248" fill="white" transform="translate(23 23)"/>
</clipPath>
</defs>
</svg>
