<?xml version="1.0" standalone="no"?>
<!DOCTYPE svg PUBLIC "-//W3C//DTD SVG 20010904//EN"
 "http://www.w3.org/TR/2001/REC-SVG-20010904/DTD/svg10.dtd">
<svg version="1.0" xmlns="http://www.w3.org/2000/svg"
 width="700.000000pt" height="700.000000pt" viewBox="0 0 700.000000 700.000000"
 preserveAspectRatio="xMidYMid meet">
<metadata>
Created by potrace 1.14, written by Peter Selinger 2001-2017
</metadata>
<g transform="translate(0.000000,700.000000) scale(0.100000,-0.100000)"
fill="#000000" stroke="none">
<path d="M44 6982 c-12 -9 -27 -27 -33 -39 -16 -31 -16 -6855 0 -6886 6 -12
21 -30 33 -39 20 -16 219 -18 3456 -18 l3435 0 27 25 c15 14 30 36 33 48 3 12
4 1564 3 3449 l-3 3427 -23 23 -23 23 -3442 2 c-3250 2 -3443 2 -3463 -15z"/>
</g>
</svg>
